<?xml version="1.0" encoding="UTF-8"?>
<svg width="43px" height="24px" viewBox="0 0 43 24" version="1.1" xmlns="http://www.w3.org/2000/svg" xmlns:xlink="http://www.w3.org/1999/xlink">
    <title>noun-arrow-right-angle-383557</title>
    <g id="Page-1" stroke="none" stroke-width="1" fill="none" fill-rule="evenodd">
        <g id="Artboard" transform="translate(-1249.000000, -163.000000)" fill="#4FC0F3" fill-rule="nonzero">
            <g id="Group" transform="translate(0.000000, 1.000000)">
                <g id="noun-arrow-right-angle-383557" transform="translate(1270.580373, 173.944063) scale(-1, 1) translate(-1270.580373, -173.944063) translate(1249.580373, 162.000000)">
                    <path d="M40.7523424,23.3554852 C40.0072338,20.6948769 40.3797881,18.1941473 40.6989755,15.852691 C40.9651314,14.0966204 41.1779282,12.3939868 41.018162,10.6379162 L41.9226996,10.5315178 C42.1354878,12.3939435 41.8693327,14.2030188 41.6035131,15.9590894 C41.2309588,18.3534639 40.9117723,20.6414832 41.6035131,23.0892947 L40.7523424,23.3554852 Z" id="Path"></path>
                    <path d="M41.2849829,23.0900296 C40.2206531,22.558055 40.2206531,22.558055 40.2740901,22.4516566 C40.2740901,22.4516566 40.2740901,22.3982896 40.327457,22.3982896 L41.2319947,21.2276047 L41.2319947,21.1742378 C41.1786277,20.4291291 41.0192065,19.2053704 41.0722285,18.7798633 C41.0188615,18.7264964 40.9124623,18.7264964 40.8594403,18.6734649 C40.6996741,18.620098 40.6466522,18.5670665 40.6466522,18.5136987 L40.6466522,18.4073003 C40.6466522,18.4073003 40.7530506,18.1411444 40.8594403,17.8753257 C41.1255963,17.2899832 41.338393,16.7046408 41.4447828,16.491844 C40.8594403,16.2256881 40.8594403,16.2256881 40.8594403,16.1192897 L40.8594403,16.0128913 C40.8594403,15.9595243 40.9658387,15.8531251 41.2319947,15.4275488 C41.338393,15.2147607 41.4981506,14.9485961 41.604549,14.7891758 L41.0725743,14.5230198 C41.0192074,14.4696529 40.9661759,14.4166214 41.0192074,14.3632536 C41.0725743,14.3098867 41.1256058,14.2568553 41.1789736,14.3098867 L41.8173466,14.6290732 C41.8707136,14.6824402 41.923745,14.7354716 41.8707136,14.7888394 C41.8707136,14.8422064 41.6579254,15.1080259 41.3917609,15.5339481 C41.2853625,15.6937143 41.1789727,15.8531346 41.1256049,15.959533 C41.2320033,16.0128999 41.4447914,16.1192992 41.5511898,16.1723211 C41.710956,16.2787195 41.710956,16.2787195 41.763978,16.3320873 L41.763978,16.4384857 C41.710611,16.5448841 41.338393,17.3963738 41.1256049,17.9283225 C41.072238,18.0880887 41.0192065,18.2475091 40.9658387,18.3539075 L41.0192057,18.3539075 C41.2853616,18.4603058 41.39176,18.5136737 41.39176,18.5666956 L41.39176,18.673094 C41.338393,18.8328602 41.4451269,19.9502205 41.5515262,20.9611133 C41.5515262,20.9611133 41.6048931,20.9611133 41.6048931,21.0144802 C41.6582601,21.0678472 41.6582601,21.1208786 41.6048931,21.1742464 L40.7003555,22.2915808 C40.9665114,22.451347 41.4984947,22.6641352 41.4984947,22.6641352 L41.2849829,23.0900296 Z" id="Path"></path>
                    <path d="M41.4976932,12.1285312 C41.4443262,12.1285312 41.4443262,12.1285312 41.4976932,12.1285312 C41.3912948,12.0751643 41.337927,12.0221328 41.3912948,11.9157431 C41.4446617,11.8623762 41.4976932,11.8093447 41.551061,11.8623762 C41.6044279,11.9157431 41.6574594,11.9687745 41.6044279,12.0221423 C41.6040902,12.0751712 41.5507238,12.1285407 41.4976923,12.1285407 L41.4976932,12.1285312 Z" id="Path"></path>
                    <path d="M40.9123075,23.8881256 C38.8904355,21.2275174 33.0370109,16.9707172 30.2698746,15.0554597 L30.8018492,14.310351 C33.6221631,16.2257814 39.5817699,20.5893692 41.6569925,23.356592 L40.9123075,23.8881256 Z" id="Path"></path>
                    <path d="M38.783475,21.3866187 L38.7301081,21.3866187 C38.6767412,21.3866187 38.6767412,21.3332509 38.6767412,21.3332509 C38.6233742,21.3332509 38.5703428,21.2798839 38.516975,21.2798839 C38.3041868,21.226517 38.1444206,21.1734855 38.1444206,21.0670958 C36.38835,19.9497614 31.120657,16.5440618 31.06722,15.3733769 C30.6416351,15.1605887 30.6416351,15.1605887 30.5882673,15.1072209 L30.5882673,15.0008225 C30.6416342,14.9474556 30.6946657,14.8944241 30.7480335,14.9474556 L30.8014004,14.9474556 C30.8547674,15.0008225 31.0675564,15.053854 31.1739548,15.1072218 C31.333721,15.1605887 31.333721,15.1605887 31.333721,15.2136202 L31.333721,15.3200186 C31.067565,15.8519932 34.7390747,18.565926 38.3044799,20.8005948 C38.3578469,20.8005948 38.3578469,20.8539618 38.3578469,20.8539618 C38.4112138,20.8539618 38.5176131,20.9073287 38.570635,20.9073287 C38.7834232,20.9606957 38.8898215,21.0137271 38.9431893,21.1201168 L38.9431893,21.279883 C38.8898224,21.3335872 38.836791,21.3866187 38.7834232,21.3866187 L38.783475,21.3866187 Z" id="Path"></path>
                    <path d="M0.0459875738,5.05115768 C7.97428883,2.70978784 16.4350576,0.315326901 24.6295926,2.6567832 C32.2920925,4.89179788 35.9101565,10.3722877 37.8790239,17.7687267 C37.7192577,17.236752 38.0387901,16.5980418 37.8790239,16.0660931 C35.8571518,8.66974052 32.2920925,3.24208243 24.6295926,1.00689481 C16.4884946,-1.44091664 7.92145712,1.06026175 0.0459875738,3.34826465 C-0.113441398,3.4012935 0.205753769,4.99754776 0.0459875738,5.05089828 L0.0459875738,5.05115768 Z" id="Path"></path>
                </g>
            </g>
        </g>
    </g>
</svg>